Coordinates
version=1
nRows=9
nColumns=36
inDegrees=yes

Units are S.I. units (second, meters, Newtons, ...)
If the header above contains a line with 'inDegrees', this indicates whether rotational values are in degrees (yes) or radians (no).

endheader
time	pelvis_tilt	pelvis_list	pelvis_rotation	pelvis_tx	pelvis_ty	pelvis_tz	hip_flexion_r	hip_adduction_r	hip_rotation_r	knee_angle_r	knee_angle_r_beta	ankle_angle_r	subtalar_angle_r	mtp_angle_r	hip_flexion_l	hip_adduction_l	hip_rotation_l	knee_angle_l	knee_angle_l_beta	ankle_angle_l	subtalar_angle_l	mtp_angle_l	lumbar_extension	lumbar_bending	lumbar_rotation	arm_flex_r	arm_add_r	arm_rot_r	elbow_flex_r	pro_sup_r	arm_flex_l	arm_add_l	arm_rot_l	elbow_flex_l	pro_sup_l
      5.21666670	      8.10146900	     -7.21378884	     10.93056686	      0.40221511	      0.74251237	     -0.04683442	     48.32907750	     -0.59956301	     -3.07607187	      9.67440587	      0.16885024	    -10.28323868	     -6.92274791	     -7.49999987	     34.59609594	      7.38040409	      7.33639205	     75.11135093	      1.31094038	     28.06179010	    -26.02609529	     -7.49999987	    -33.98873999	      0.94814332	      2.70934724	     62.43559337	      8.21077578	     75.44283172	    123.52903708	     90.86028336	     62.84084641	      5.15934455	     77.94639234	    116.07676749	     76.45316315
      5.23333330	      8.25857064	     -7.13107984	     11.08855315	      0.40763163	      0.74362385	     -0.04302079	     47.68754149	     -0.56660886	     -2.92981441	      9.09874264	      0.15880302	    -10.29421323	     -6.53775867	     -7.49999987	     33.86229278	      7.49599123	      7.94296588	     74.79794994	      1.30547050	     28.43753715	    -26.64878853	     -7.49999987	    -34.17283846	      0.69142739	      2.59927365	     62.04183585	      8.31698789	     75.05937550	    123.16831672	     91.03379622	     62.90273565	      4.92021559	     78.60486028	    115.15935107	     76.50503527
      5.25000000	      8.42377761	     -7.29898967	     10.91038442	      0.40620308	      0.74338910	     -0.04286834	     46.86296046	     -0.25093722	     -3.68050423	      8.15921972	      0.14240525	    -10.12281466	     -5.51603043	     -7.49999987	     33.84252034	      7.48130278	      8.18553890	     75.27396120	      1.31377846	     28.83715696	    -27.24299101	     -7.49999987	    -34.43937680	      0.60353566	      2.94473528	     61.81932193	      8.51009021	     74.96828368	    123.20598190	     89.11349033	     62.93630915	      4.99593492	     79.43640335	    114.98566357	     75.19158820
      5.26666670	      8.70838021	     -7.43085863	     10.93612520	      0.40645020	      0.74299794	     -0.04265171	     46.20282909	     -0.15580637	     -3.84517271	      7.17397095	      0.12520941	    -10.27825113	     -4.60213357	     -7.49999987	     33.28157182	      7.42291751	      8.48637071	     75.35878215	      1.31525887	     29.37506913	    -27.76007423	     -7.49999987	    -34.71229205	      0.52564158	      2.91941702	     61.77066813	      8.61503514	     75.14845152	    123.51483682	     89.04641866	     62.94575341	      5.02974138	     80.11126491	    114.73399854	     75.00849576
      5.28333330	      8.75916287	     -7.58958079	     10.51440964	      0.40526734	      0.73736016	     -0.04241520	     45.99533028	      0.15470385	     -4.19701397	      6.45605818	      0.11267947	    -10.35754681	     -4.07690902	     -7.49999987	     33.73366133	      7.33365233	      8.16066010	     76.05549575	      1.32741882	     29.44548880	    -28.19700336	     -7.49999987	    -34.79506907	      0.48983448	      3.25323371	     62.05171132	      8.66483749	     75.04309325	    123.98449866	     88.56023273	     62.94125850	      5.40719232	     80.45800280	    114.62636914	     74.70271749
      5.30000000	      8.70260059	     -7.72839941	     10.33406493	      0.40564349	      0.73963092	     -0.04187169	     45.58466299	      0.33814841	     -4.49946477	      5.74657788	      0.10029670	    -10.36975504	     -3.25372425	     -7.49999987	     33.98073887	      7.11450498	      8.10974918	     76.08776495	      1.32798202	     29.26877230	    -28.50847590	     -7.49999987	    -34.83559990	      0.42478872	      3.29156585	     62.00558186	      8.47741187	     74.60444417	    124.69937281	     87.95474713	     62.57289425	      5.66916409	     80.85272116	    114.83272205	     74.25150280
      5.31666670	      8.69787768	     -7.99495870	     10.03548568	      0.40452308	      0.73989621	     -0.04196418	     45.35991076	      0.66531252	     -4.93771293	      5.59971932	      0.09773354	    -10.04745035	     -2.54894173	     -7.49999987	     34.03473048	      6.76177925	      7.89859991	     76.02722996	      1.32692548	     29.15787192	    -28.78806061	     -7.49999987	    -34.96150821	      0.47959804	      3.64253562	     61.58480737	      8.20888489	     74.09404563	    125.06910899	     92.94662436	     62.49758061	      6.01044389	     80.95377199	    114.36808838	     76.85782813
      5.33333330	      8.74502104	     -8.18697344	      9.85538813	      0.40483425	      0.73985639	     -0.04158781	     45.21586476	      0.86277033	     -4.88528106	      5.48368063	      0.09570828	    -10.12689078	     -2.56517176	     -7.49999987	     34.30656727	      6.41373165	      7.56616203	     76.27358155	      1.33122513	     28.63808368	    -29.31401372	     -7.49999987	    -35.17673909	      0.63601900	      3.81894312	     61.27199824	      8.06410107	     73.81718706	    125.32456620	     92.22617962	     62.45802185	      6.08372336	     80.89733239	    114.45977623	     76.38834554
      5.35000000	      8.69063832	     -8.16339181	      9.74131433	      0.40381101	      0.73984006	     -0.04147007	     44.90261683	      0.86367172	     -4.88071588	      4.94843961	      0.08636656	    -10.26187366	     -2.13265250	     -7.49999987	     34.64926495	      6.33356527	      7.30805498	     76.43066165	      1.33396670	     27.83250591	    -29.55065567	     -7.49999987	    -35.17667301	      0.66293019	      3.85104697	     60.99060383	      7.82427703	     73.38574045	    125.38712574	     91.40245102	     62.03055089	      6.19383602	     81.24755247	    114.70221716	     75.88322728
